Coordinates
version=1
nRows=6
nColumns=63
inDegrees=yes

Units are S.I. units (second, meters, Newtons, ...)
If the header above contains a line with 'inDegrees', this indicates whether rotational values are in degrees (yes) or radians (no).

endheader
time	pelvis_tilt	pelvis_list	pelvis_rotation	pelvis_tx	pelvis_ty	pelvis_tz	hip_flexion_r	hip_adduction_r	hip_rotation_r	knee_angle_r	knee_angle_r_beta	ankle_angle_r	subtalar_angle_r	mtp_angle_r	hip_flexion_l	hip_adduction_l	hip_rotation_l	knee_angle_l	knee_angle_l_beta	ankle_angle_l	subtalar_angle_l	mtp_angle_l	L5_S1_Flex_Ext	L5_S1_Lat_Bending	L5_S1_axial_rotation	L4_L5_Flex_Ext	L4_L5_Lat_Bending	L4_L5_axial_rotation	L3_L4_Flex_Ext	L3_L4_Lat_Bending	L3_L4_axial_rotation	L2_L3_Flex_Ext	L2_L3_Lat_Bending	L2_L3_axial_rotation	L1_L2_Flex_Ext	L1_L2_Lat_Bending	L1_L2_axial_rotation	L1_T12_Flex_Ext	L1_T12_Lat_Bending	L1_T12_axial_rotation	Abs_r3	Abs_r2	Abs_r1	Abs_t1	Abs_t2	neck_flexion	neck_bending	neck_rotation	arm_flex_r	arm_add_r	arm_rot_r	elbow_flex_r	pro_sup_r	wrist_flex_r	wrist_dev_r	arm_flex_l	arm_add_l	arm_rot_l	elbow_flex_l	pro_sup_l	wrist_flex_l	wrist_dev_l
      5.03389831	      1.03358817	     -6.20658600	     90.63545878	      0.21061289	      0.62735954	      0.97026053	     -2.04892841	      3.44422822	     10.27218747	      9.22664050	      0.16103526	     29.49192945	    -15.28407418	      0.00000000	      1.39025640	     -1.53605788	      0.17776407	     16.68812279	      0.29126269	     38.43775760	     -0.07130149	      0.00000000	     -0.21641739	      0.06515542	     -0.07087632	     -0.40190874	      0.08665671	     -0.07530609	     -0.35555213	      0.15841890	     -0.07530609	     -0.24734344	      0.15841890	     -0.06201678	     -0.20096519	      0.13286494	     -0.05758701	     -0.12366090	      0.10092575	     -0.05315724	     -1.54584778	      0.73705118	     -0.39419281	      0.00000000	      0.00000000	      5.85519789	      6.89686579	    -13.99027466	    -12.58384030	    -12.38822386	     23.64643146	     97.86165184	     74.50070760	     15.96624394	     30.21627279	    -17.56770068	    -12.96420685	     16.11598663	    102.37549412	     70.90380939	     -7.99996513	     24.00977079
      5.05084746	      1.07702343	     -6.33352754	     90.60817239	      0.21046015	      0.62753988	      0.97002174	     -2.05588396	      3.42821877	     10.27369376	      8.89034431	      0.15516578	     29.53712373	    -15.16657823	      0.00000000	      1.62702637	     -1.54548357	      0.36806661	     16.90002073	      0.29496101	     38.42147967	     -0.16602838	      0.00000000	     -0.20507143	      0.06730019	     -0.06350151	     -0.38083815	      0.08950925	     -0.06747035	     -0.33691185	      0.16363368	     -0.06747035	     -0.23437614	      0.16363368	     -0.05556382	     -0.19042933	      0.13723855	     -0.05159498	     -0.11717781	      0.10424800	     -0.04762613	     -1.46480471	      0.76131322	     -0.35317634	      0.00000000	      0.00000000	      5.30015885	      7.16742690	    -14.56763792	    -12.76493244	    -12.38785014	     23.54428992	     97.89978061	     74.40397103	     15.95375128	     30.28184550	    -17.38656894	    -12.47421598	     15.80817531	    102.27924758	     71.10307932	     -8.27448451	     24.43453372
      5.06779661	      1.18153271	     -6.48818133	     90.65397203	      0.21019442	      0.62754839	      0.96977846	     -2.02214628	      3.47724494	     10.03088980	      8.57572449	      0.14967463	     29.68636208	    -14.88650457	      0.00000000	      1.87633786	     -1.52352550	      1.29088787	     17.04812369	      0.29754589	     38.27753919	     -1.24592831	      0.00000000	     -0.19031741	      0.07355796	      0.01399826	     -0.35343847	      0.09783208	      0.01487315	     -0.31267248	      0.17884882	      0.01487315	     -0.21751377	      0.17884882	      0.01224848	     -0.17672875	      0.14999939	      0.01137359	     -0.10874737	      0.11394128	      0.01049870	     -1.35941826	      0.83210233	      0.07785413	      0.00000000	      0.00000000	      4.82764660	      6.43463517	    -16.68832680	    -13.25768943	    -12.38946073	     23.05138549	     98.17912534	     75.35152575	     16.31675367	     30.07329242	    -16.96982642	    -12.23399412	     16.04075726	    102.54957179	     73.10448341	     -9.26544667	     26.45888073
      5.08474576	      1.22084771	     -6.59467178	     90.72646495	      0.20996681	      0.62760910	      0.96955635	     -2.00538064	      3.46952360	      9.71721082	      8.32996826	      0.14538537	     29.74226069	    -14.64711801	      0.00000000	      2.08858530	     -1.46884408	      2.03698497	     17.22699978	      0.30066787	     38.11878543	     -2.08715525	      0.00000000	     -0.17971373	      0.07560452	      0.10333057	     -0.33374637	      0.10055401	      0.10978874	     -0.29525169	      0.18382483	      0.10978874	     -0.20539482	      0.18382483	      0.09041425	     -0.16688217	      0.15417274	      0.08395609	     -0.10268843	      0.11711140	      0.07749793	     -1.28367720	      0.85525347	      0.57469366	      0.00000000	      0.00000000	      4.43372337	      5.95526061	    -18.31887808	    -13.81064028	    -12.37500907	     22.44764846	     98.52926043	     78.04430676	     17.27973712	     29.26017375	    -16.59414103	    -12.30219232	     16.57615330	    102.46428885	     74.38434495	     -9.35218932	     26.42211779
      5.10169492	      1.27171503	     -6.65859100	     90.55162838	      0.21023197	      0.62761884	      0.96944754	     -1.98637238	      3.49393731	      9.75454083	      8.18093893	      0.14278432	     29.64592295	    -14.60990851	      0.00000000	      2.26564694	     -1.47815055	      2.42418214	     17.48282395	      0.30513284	     38.09027527	     -2.66884549	      0.00000000	     -0.17005765	      0.08047686	      0.23480410	     -0.31581407	      0.10703423	      0.24947936	     -0.27938772	      0.19567144	      0.24947936	     -0.19435889	      0.19567144	      0.20545359	     -0.15791554	      0.16410842	      0.19077833	     -0.09717094	      0.12465866	      0.17610308	     -1.21470481	      0.91037036	      1.30590997	      0.00000000	      0.00000000	      4.08740883	      5.82817362	    -19.18823941	    -14.29302019	    -12.41476696	     21.98449351	     98.88679699	     80.19004176	     17.77479013	     28.60869036	    -16.33473790	    -12.46093518	     17.09618097	    102.42132273	     74.98175625	     -9.22270704	     26.29779374
      5.11864407	      1.28833096	     -6.59733719	     90.30007339	      0.21051894	      0.62779178	      0.96931615	     -2.12386228	      3.48393626	     10.06473908	      8.00164937	      0.13965513	     29.43436069	    -14.62041537	      0.00000000	      2.23324595	     -1.41078778	      2.80204687	     17.59447381	      0.30708150	     37.93883470	     -3.67436812	      0.00000000	     -0.17369034	      0.08261507	      0.41136797	     -0.32256032	      0.10987804	      0.43707847	     -0.28535585	      0.20087028	      0.43707847	     -0.19851069	      0.20087028	      0.35994697	     -0.16128885	      0.16846865	      0.33423648	     -0.09924666	      0.12797074	      0.30852598	     -1.24065271	      0.93455819	      2.28790524	      0.00000000	      0.00000000	      3.90802474	      5.56558905	    -20.31230759	    -14.90729056	    -12.30502030	     21.19902228	     99.04859605	     82.61012619	     18.51887478	     27.06935196	    -15.88791706	    -12.77479466	     18.00105947	    102.12527366	     75.52170835	     -9.02633661	     25.66822468
